<svg fill="#ffffff" viewBox="0 0 32 32" version="1.1" xmlns="http://www.w3.org/2000/svg" stroke="#ffffff"><g id="SVGRepo_bgCarrier" stroke-width="0"></g><g id="SVGRepo_tracerCarrier" stroke-linecap="round" stroke-linejoin="round"></g><g id="SVGRepo_iconCarrier"> <title>health</title> <path d="M29.125 10.375h-7.5v-7.5c0-1.036-0.839-1.875-1.875-1.875h-7.5c-1.036 0-1.875 0.84-1.875 1.875v7.5h-7.5c-1.036 0-1.875 0.84-1.875 1.875v7.5c0 1.036 0.84 1.875 1.875 1.875h7.5v7.5c0 1.036 0.84 1.875 1.875 1.875h7.5c1.036 0 1.875-0.84 1.875-1.875v-7.5h7.5c1.035 0 1.875-0.839 1.875-1.875v-7.5c0-1.036-0.84-1.875-1.875-1.875z"></path> </g></svg>