<!DOCTYPE svg PUBLIC "-//W3C//DTD SVG 1.1//EN" "http://www.w3.org/Graphics/SVG/1.1/DTD/svg11.dtd">
<!-- Uploaded to: SVG Repo, www.svgrepo.com, Transformed by: SVG Repo Mixer Tools -->
<svg height="800px" width="800px" version="1.1" id="Layer_1" xmlns="http://www.w3.org/2000/svg" xmlns:xlink="http://www.w3.org/1999/xlink" viewBox="0 0 512 512" xml:space="preserve" fill="#000000">
<g id="SVGRepo_bgCarrier" stroke-width="0"/>
<g id="SVGRepo_tracerCarrier" stroke-linecap="round" stroke-linejoin="round"/>
<g id="SVGRepo_iconCarrier"> <path style="fill:#F3F4F6;" d="M339.053,512H68.096c-11.28,0-20.426-9.145-20.426-20.426V20.426C47.67,9.145,56.816,0,68.096,0 h375.788c11.28,0,20.426,9.145,20.426,20.426v366.32c0,5.418-2.153,10.613-5.983,14.444L353.496,506.018 C349.665,509.849,344.47,512,339.053,512z"/> <path style="fill:#bacece;" d="M443.882,0H255.989v512h83.064c5.417,0,10.613-2.151,14.442-5.983l104.829-104.829 c3.83-3.83,5.983-9.025,5.983-14.444V20.426C464.308,9.145,455.164,0,443.882,0z"/> <path style="fill:#111827;" d="M244.299,343.345h-30.603v-30.604c0-11.28-9.145-20.426-20.426-20.426s-20.426,9.145-20.426,20.426 v30.604h-30.604c-11.28,0-20.426,9.145-20.426,20.426s9.145,20.426,20.426,20.426h30.604V414.8c0,11.28,9.145,20.426,20.426,20.426 s20.426-9.145,20.426-20.426v-30.604h30.603c11.28,0,20.426-9.145,20.426-20.426C264.724,352.489,255.581,343.345,244.299,343.345z"/> <g> <path style="fill:#3B82F6;" d="M247.819,249.153H142.242c-11.28,0-20.426-9.145-20.426-20.426s9.145-20.426,20.426-20.426h105.577 c11.28,0,20.426,9.145,20.426,20.426S259.099,249.153,247.819,249.153z"/> <path style="fill:#3B82F6;" d="M369.736,186.469H142.242c-11.28,0-20.426-9.145-20.426-20.426s9.145-20.426,20.426-20.426h227.494 c11.28,0,20.426,9.145,20.426,20.426S381.016,186.469,369.736,186.469z"/> <path style="fill:#3B82F6;" d="M369.736,123.783H142.242c-11.28,0-20.426-9.145-20.426-20.426s9.145-20.426,20.426-20.426h227.494 c11.28,0,20.426,9.145,20.426,20.426S381.016,123.783,369.736,123.783z"/> </g> <path style="fill:#111827;" d="M264.724,363.771c0-6.93-3.459-13.042-8.735-16.735v33.471 C261.266,376.813,264.724,370.699,264.724,363.771z"/> <g> <path style="fill:#3B82F6;" d="M268.244,228.728c0-8.373-5.044-15.562-12.255-18.714v37.429 C263.201,244.288,268.244,237.101,268.244,228.728z"/> <path style="fill:#3B82F6;" d="M369.736,145.618H255.989v40.851h113.747c11.28,0,20.426-9.145,20.426-20.426 S381.016,145.618,369.736,145.618z"/> <path style="fill:#3B82F6;" d="M369.736,82.932H255.989v40.851h113.747c11.28,0,20.426-9.145,20.426-20.426 S381.016,82.932,369.736,82.932z"/> <path style="fill:#3B82F6;" d="M339.049,512c-11.22,0-20.421-9.103-20.421-20.426V386.745c0-11.28,9.145-20.426,20.426-20.426 h104.829c18.126,0,27.302,22.009,14.442,34.869L353.495,506.018C349.588,509.926,344.364,512,339.049,512z"/> </g> </g>
</svg>