<svg height="250px" width="250px" version="1.1" id="Layer_1" xmlns="http://www.w3.org/2000/svg" xmlns:xlink="http://www.w3.org/1999/xlink" viewBox="-133.12 -133.12 778.24 778.24" xml:space="preserve" fill="#000000"><g id="SVGRepo_bgCarrier" stroke-width="0"><rect x="-133.12" y="-133.12" width="778.24" height="778.24" rx="389.12" fill="#ffffff" strokewidth="0"></rect></g><g id="SVGRepo_tracerCarrier" stroke-linecap="round" stroke-linejoin="round"></g><g id="SVGRepo_iconCarrier"> <path style="fill:#0070fc;" d="M204.232,266.361H62.471c-7.707,0-13.955-6.248-13.955-13.955s6.248-13.955,13.955-13.955h141.761 c7.707,0,13.955,6.248,13.955,13.955S211.94,266.361,204.232,266.361z"></path> <circle style="fill:#ffffff;" cx="390.518" cy="399.59" r="47.475"></circle> <path style="fill:#0070fc;" d="M390.52,461.02c-33.87,0-61.427-27.556-61.427-61.426s27.556-61.426,61.427-61.426 c33.87,0,61.426,27.556,61.426,61.426S424.39,461.02,390.52,461.02z M390.52,366.078c-18.481,0-33.517,15.035-33.517,33.516 c0,18.481,15.035,33.516,33.517,33.516s33.516-15.035,33.516-33.516C424.036,381.113,409.001,366.078,390.52,366.078z"></path> <circle style="fill:#ffffff;" cx="138.002" cy="399.59" r="47.475"></circle> <g> <path style="fill:#0070fc;" d="M138.01,461.02c-33.87,0-61.426-27.556-61.426-61.426s27.556-61.426,61.426-61.426 s61.426,27.556,61.426,61.426S171.88,461.02,138.01,461.02z M138.01,366.078c-18.481,0-33.516,15.035-33.516,33.516 c0,18.481,15.035,33.516,33.516,33.516s33.516-15.035,33.516-33.516C171.526,381.113,156.491,366.078,138.01,366.078z"></path> <path style="fill:#0070fc;" d="M91.027,406.768H37.362C16.76,406.768,0,390.007,0,369.406v-60.755 c0-10.877,4.696-21.138,12.904-28.245l32.584-31.661l32.585-85.885c0.094-0.247,0.194-0.491,0.301-0.733 c13.033-29.229,42.132-48.181,74.133-48.285l37.725-0.12c0.015,0,0.029,0,0.045,0c7.686,0,13.93,6.218,13.955,13.91 c0.025,7.706-6.203,13.975-13.91,14l-37.725,0.12c-20.912,0.067-39.938,12.38-48.579,31.399l-33.535,88.391 c-0.724,1.909-1.859,3.635-3.323,5.059l-35.128,34.134c-0.241,0.234-0.491,0.461-0.749,0.677c-2.143,1.802-3.373,4.439-3.373,7.238 v60.755c0,5.211,4.24,9.452,9.452,9.452h53.667c7.707,0,13.955,6.248,13.955,13.955S98.735,406.768,91.027,406.768z"></path> <path style="fill:#0070fc;" d="M279.297,406.768H184.99c-7.707,0-13.955-6.248-13.955-13.955s6.248-13.955,13.955-13.955h94.307 c7.706,0,13.955,6.248,13.955,13.955S287.004,406.768,279.297,406.768z"></path> <path style="fill:#0070fc;" d="M498.038,406.768h-60.537c-7.706,0-13.955-6.248-13.955-13.955s6.249-13.955,13.955-13.955h60.537 c7.706,0,13.955,6.248,13.955,13.955S505.745,406.768,498.038,406.768z"></path> <path style="fill:#0070fc;" d="M498.045,322.435c-7.706,0-13.955-6.248-13.955-13.955V139.099 c0-13.562-11.033-24.594-24.594-24.594H245.154c-13.562,0-24.594,11.033-24.594,24.594v166.589c0,7.707-6.248,13.955-13.955,13.955 c-7.707,0-13.955-6.248-13.955-13.955V139.099c0-28.951,23.553-52.505,52.505-52.505h214.341c28.951,0,52.504,23.553,52.504,52.505 V308.48C512,316.187,505.752,322.435,498.045,322.435z"></path> </g> <path style="fill:#ffffff;" d="M207.277,127.677h-70.24v-27.62c0-19.396,15.723-35.121,35.121-35.121l0,0 c19.396,0,35.121,15.723,35.121,35.121v27.62H207.277z"></path> <path style="fill:#0070fc;" d="M207.277,141.632h-70.24c-7.707,0-13.955-6.248-13.955-13.955v-27.621 c0-27.06,22.014-49.076,49.076-49.076s49.076,22.014,49.076,49.076v27.62C221.232,135.384,214.985,141.632,207.277,141.632z M150.992,113.722h42.33v-13.665c0-11.671-9.495-21.166-21.166-21.166c-11.671,0-21.166,9.495-21.166,21.166v13.665H150.992z"></path> <path style="fill:#ffffff;" d="M407.224,199.615h-27.455V172.16c0-11.376-9.221-20.598-20.598-20.598h-17.878 c-11.376,0-20.598,9.222-20.598,20.598v27.455H293.24c-11.376,0-20.598,9.222-20.598,20.598v17.878 c0,11.376,9.221,20.598,20.598,20.598h27.455v27.455c0,11.376,9.221,20.598,20.598,20.598h17.878 c11.376,0,20.598-9.222,20.598-20.598v-27.455h27.455c11.376,0,20.598-9.221,20.598-20.598v-17.878 C427.822,208.838,418.6,199.615,407.224,199.615z"></path> <path style="fill:#0070fc;" d="M359.17,320.696h-17.878c-19.051,0-34.553-15.5-34.553-34.553v-13.5h-13.502 c-19.051,0-34.553-15.5-34.553-34.553v-17.878c0-19.053,15.5-34.553,34.553-34.553h13.502v-13.5c0-19.051,15.5-34.553,34.553-34.553 h17.878c19.051,0,34.553,15.5,34.553,34.553v13.5h13.502c19.051,0,34.553,15.5,34.553,34.553v17.878 c0,19.051-15.5,34.553-34.553,34.553h-13.502v13.5C393.722,305.196,378.223,320.696,359.17,320.696z M293.239,213.57 c-3.663,0-6.643,2.979-6.643,6.643v17.878c0,3.663,2.979,6.643,6.643,6.643h27.457c7.706,0,13.955,6.248,13.955,13.955v27.455 c0,3.663,2.979,6.643,6.643,6.643h17.878c3.663,0,6.643-2.979,6.643-6.643v-27.455c0-7.707,6.249-13.955,13.955-13.955h27.457 c3.663,0,6.643-2.979,6.643-6.643v-17.878c0-3.663-2.979-6.643-6.643-6.643h-27.457c-7.706,0-13.955-6.248-13.955-13.955V172.16 c0-3.663-2.979-6.643-6.643-6.643h-17.878c-3.663,0-6.643,2.979-6.643,6.643v27.455c0,7.707-6.249,13.955-13.955,13.955H293.239z"></path> </g></svg>